#!OML:ASF F:\VICON\USERDATA\INSTALL\rory3\rory3.ASF
:FULLY-SPECIFIED
:DEGREES
2607
root -0.558797 15.3801 -1.17128 1.60461 13.7491 -2.28641
lowerback 24.9418 4.70852 -6.19485
upperback 4.93302 3.62564 -10.1492
thorax -8.03969 1.82461 -9.06549
lowerneck -4.80228 -16.0972 -20.7547
upperneck -5.21876 -21.526 29.9176
head 5.25751 -10.4779 10.6567
rclavicle -8.74653e-014 4.45278e-014
rhumerus 52.1216 -16.7509 -18.2812
rradius 38.4331
rwrist -14.9269
rhand 6.97698 1.11653
rfingers 7.12502
rthumb 32.2538 -26.0382
lclavicle -8.74653e-014 4.45278e-014
lhumerus -11.7889 -25.0293 55.1672
lradius 126.286
lwrist 10.7742
lhand -5.82877 21.874
lfingers 7.12502
lthumb 19.997 50.865
rfemur -21.544 -4.54212 21.4978
rtibia 44.7035
rfoot -19.8673 -12.6569
rtoes -17.1466
lfemur -25.6458 -13.3239 -9.66455
ltibia 40.4637
lfoot -13.1887 -2.19457
ltoes -17.1344
2608
root -0.559291 15.3843 -1.16989 1.73202 13.9712 -2.32032
lowerback 24.8323 4.62715 -6.42083
upperback 4.8834 3.47614 -10.0833
thorax -8.07365 1.75698 -8.8018
lowerneck -4.97264 -16.1132 -20.6841
upperneck -5.02976 -21.5844 30.1172
head 5.38175 -10.4867 10.6858
rclavicle -3.49861e-014 -4.13472e-014
rhumerus 49.0491 -13.102 -13.2183
rradius 42.1817
rwrist -18.8693
rhand 7.64631 1.878
rfingers 7.12502
rthumb 32.8907 -25.1452
lclavicle -3.49861e-014 -4.13472e-014
lhumerus -11.9606 -25.2627 55.4141
lradius 126.265
lwrist 10.6724
lhand -6.1719 21.7244
lfingers 7.12502
lthumb 19.6671 50.7495
rfemur -21.6052 -4.66912 21.5448
rtibia 44.5879
rfoot -19.8427 -12.701
rtoes -17.2459
lfemur -25.8358 -13.3853 -9.58801
ltibia 40.4029
lfoot -13.1006 -2.32752
ltoes -16.956
2609
root -0.559741 15.3893 -1.16511 1.79215 14.1392 -2.437
lowerback 24.7356 4.57591 -6.60717
upperback 4.84575 3.37782 -9.99094
thorax -8.09346 1.71349 -8.54674
lowerneck -5.19717 -16.1425 -20.5158
upperneck -4.85099 -21.6432 30.184
head 5.47852 -10.4917 10.6506
rclavicle -2.8625e-014 1.59028e-014
rhumerus 46.4193 -9.38877 -8.89904
rradius 46.4877
rwrist -21.2741
rhand 8.07685 2.87927
rfingers 7.12502
rthumb 33.3001 -24.0571
lclavicle -2.8625e-014 1.59028e-014
lhumerus -12.1314 -25.318 55.7262
lradius 126.387
lwrist 10.8353
lhand -6.20174 21.7942
lfingers 7.12502
lthumb 19.6384 50.8222
rfemur -21.592 -4.70675 21.6818
rtibia 44.4587
rfoot -19.8329 -12.7504
rtoes -17.1419
lfemur -25.9305 -13.3764 -9.44852
ltibia 40.3328
lfoot -13.035 -2.44357
ltoes -17.0161
2610
root -0.558348 15.3966 -1.15581 1.87928 14.2858 -2.51771
lowerback 24.5093 4.55749 -6.76647
upperback 4.84535 3.35097 -9.92016
thorax -7.99348 1.70612 -8.33815
lowerneck -5.30959 -16.1265 -20.2318
upperneck -4.81802 -21.6168 30.1223
head 5.45726 -10.4718 10.584
rclavicle 6.20208e-014 -3.49861e-014
rhumerus 44.126 -5.75954 -5.41294
rradius 51.1106
rwrist -22.9529
rhand 8.05108 3.84616
rfingers 7.12502
rthumb 33.2756 -23.0955
lclavicle 6.20208e-014 -3.49861e-014
lhumerus -12.2728 -25.3991 55.9754
lradius 126.57
lwrist 11.0752
lhand -6.21925 21.8496
lfingers 7.12502
lthumb 19.6216 50.8794
rfemur -21.5443 -4.72797 21.7798
rtibia 44.3157
rfoot -19.7769 -12.7659
rtoes -16.6965
lfemur -26.0051 -13.3868 -9.34464
ltibia 40.2462
lfoot -13.0214 -2.52771
ltoes -16.9064
2611
root -0.555506 15.4041 -1.14707 1.93045 14.5107 -2.63675
lowerback 24.3147 4.51159 -6.88766
upperback 4.84922 3.30212 -9.76534
thorax -7.91006 1.68734 -8.04959
lowerneck -5.31372 -16.0482 -20.0088
upperneck -4.8862 -21.4779 29.9195
head 5.34407 -10.4096 10.5144
rclavicle -2.06736e-014 -2.22639e-014
rhumerus 42.3274 -2.14787 -2.58601
rradius 55.7368
rwrist -24.5535
rhand 7.69898 4.71114
rfingers 7.12502
rthumb 32.9408 -22.3016
lclavicle -2.06736e-014 -2.22639e-014
lhumerus -12.5399 -25.4328 56.3812
lradius 126.746
lwrist 11.4399
lhand -6.2354 22.035
lfingers 7.12502
lthumb 19.606 51.0664
rfemur -21.4184 -4.80796 21.9115
rtibia 44.1537
rfoot -19.7631 -12.6367
rtoes -15.3174
lfemur -26.0786 -13.4971 -9.20794
ltibia 40.1588
lfoot -12.9837 -2.58451
ltoes -16.8536
2612
root -0.552014 15.4094 -1.13781 1.91047 14.7286 -2.71529
lowerback 24.2384 4.46584 -7.03039
upperback 4.83618 3.23246 -9.57127
thorax -7.91143 1.65772 -7.71205
lowerneck -5.21166 -15.9706 -19.9728
upperneck -5.02117 -21.3301 29.6823
head 5.20782 -10.3517 10.4719
rclavicle 3.18055e-015 3.49861e-014
rhumerus 40.9764 1.38778 -0.41419
rradius 60.358
rwrist -26.4755
rhand 7.86061 4.98115
rfingers 7.12502
rthumb 33.0945 -21.9991
lclavicle 3.18055e-015 3.49861e-014
lhumerus -13.0439 -25.3727 56.9949
lradius 126.815
lwrist 11.6711
lhand -6.06952 22.1622
lfingers 7.12502
lthumb 19.7655 51.1772
rfemur -21.2608 -4.85424 21.987
rtibia 43.9873
rfoot -19.7567 -12.78
rtoes -15.3907
lfemur -26.0601 -13.6394 -9.13846
ltibia 40.0679
lfoot -12.9543 -2.63768
ltoes -16.8524
2613
root -0.547513 15.4131 -1.12695 1.86981 14.9798 -2.68239
lowerback 24.1936 4.40399 -7.17296
upperback 4.8379 3.13569 -9.4357
thorax -7.9096 1.61546 -7.43749
lowerneck -5.07354 -15.9073 -20.0361
upperneck -5.11744 -21.2209 29.52
head 5.1104 -10.3123 10.4634
rclavicle 1.59028e-015 -1.74931e-013
rhumerus 39.81 4.8497 1.19161
rradius 64.9237
rwrist -28.8002
rhand 8.57016 4.8291
rfingers 7.12502
rthumb 33.769 -22.0057
lclavicle 1.59028e-015 -1.74931e-013
lhumerus -13.6113 -25.2852 57.5169
lradius 126.825
lwrist 11.694
lhand -5.734 22.2775
lfingers 7.12502
lthumb 20.088 51.259
rfemur -21.0998 -4.93321 21.9205
rtibia 43.8275
rfoot -19.8023 -13.1126
rtoes -16.4333
lfemur -25.9897 -13.8479 -9.20842
ltibia 39.9912
lfoot -12.8957 -2.71237
ltoes -16.6976
